<mxfile host="app.diagrams.net" agent="Mozilla/5.0 (Windows NT 10.0; Win64; x64) AppleWebKit/537.36 (KHTML, like Gecko) Chrome/139.0.0.0 Safari/537.36" version="28.1.1">
  <diagram name="Page-1" id="9DdZgtAm2QRkesrVVRvZ">
    <mxGraphModel dx="1042" dy="562" grid="1" gridSize="10" guides="1" tooltips="1" connect="1" arrows="1" fold="1" page="1" pageScale="1" pageWidth="827" pageHeight="1169" math="0" shadow="0">
      <root>
        <mxCell id="0" />
        <mxCell id="1" parent="0" />
        <mxCell id="p3Ti9UDl7Y15IX-M76qU-17" value="" style="edgeStyle=orthogonalEdgeStyle;rounded=0;orthogonalLoop=1;jettySize=auto;html=1;" edge="1" parent="1" source="p3Ti9UDl7Y15IX-M76qU-1" target="p3Ti9UDl7Y15IX-M76qU-2">
          <mxGeometry relative="1" as="geometry" />
        </mxCell>
        <mxCell id="p3Ti9UDl7Y15IX-M76qU-1" value="START" style="ellipse;whiteSpace=wrap;html=1;fillColor=#e1d5e7;strokeColor=#9673a6;" vertex="1" parent="1">
          <mxGeometry x="75" y="20" width="170" height="60" as="geometry" />
        </mxCell>
        <mxCell id="p3Ti9UDl7Y15IX-M76qU-16" value="" style="edgeStyle=orthogonalEdgeStyle;rounded=0;orthogonalLoop=1;jettySize=auto;html=1;" edge="1" parent="1" source="p3Ti9UDl7Y15IX-M76qU-2" target="p3Ti9UDl7Y15IX-M76qU-4">
          <mxGeometry relative="1" as="geometry" />
        </mxCell>
        <mxCell id="p3Ti9UDl7Y15IX-M76qU-2" value="NEW USER?" style="rhombus;whiteSpace=wrap;html=1;fillColor=#dae8fc;strokeColor=#6c8ebf;" vertex="1" parent="1">
          <mxGeometry x="100" y="130" width="120" height="90" as="geometry" />
        </mxCell>
        <mxCell id="p3Ti9UDl7Y15IX-M76qU-15" value="" style="edgeStyle=orthogonalEdgeStyle;rounded=0;orthogonalLoop=1;jettySize=auto;html=1;" edge="1" parent="1" source="p3Ti9UDl7Y15IX-M76qU-4" target="p3Ti9UDl7Y15IX-M76qU-5">
          <mxGeometry relative="1" as="geometry" />
        </mxCell>
        <mxCell id="p3Ti9UDl7Y15IX-M76qU-4" value="RECOGNIZE THE FACE" style="shape=parallelogram;perimeter=parallelogramPerimeter;whiteSpace=wrap;html=1;fixedSize=1;fillColor=#f8cecc;strokeColor=#b85450;" vertex="1" parent="1">
          <mxGeometry x="75" y="270" width="170" height="60" as="geometry" />
        </mxCell>
        <mxCell id="p3Ti9UDl7Y15IX-M76qU-14" value="" style="edgeStyle=orthogonalEdgeStyle;rounded=0;orthogonalLoop=1;jettySize=auto;html=1;" edge="1" parent="1" source="p3Ti9UDl7Y15IX-M76qU-5" target="p3Ti9UDl7Y15IX-M76qU-6">
          <mxGeometry relative="1" as="geometry" />
        </mxCell>
        <mxCell id="p3Ti9UDl7Y15IX-M76qU-5" value="FACE RECOGNIZED" style="rhombus;whiteSpace=wrap;html=1;fillColor=#dae8fc;strokeColor=#6c8ebf;" vertex="1" parent="1">
          <mxGeometry x="90" y="380" width="140" height="110" as="geometry" />
        </mxCell>
        <mxCell id="p3Ti9UDl7Y15IX-M76qU-13" value="" style="edgeStyle=orthogonalEdgeStyle;rounded=0;orthogonalLoop=1;jettySize=auto;html=1;" edge="1" parent="1" source="p3Ti9UDl7Y15IX-M76qU-6" target="p3Ti9UDl7Y15IX-M76qU-7">
          <mxGeometry relative="1" as="geometry" />
        </mxCell>
        <mxCell id="p3Ti9UDl7Y15IX-M76qU-6" value="STORED IN CSV FILE" style="shape=parallelogram;perimeter=parallelogramPerimeter;whiteSpace=wrap;html=1;fixedSize=1;fillColor=#f8cecc;strokeColor=#b85450;" vertex="1" parent="1">
          <mxGeometry x="70" y="555" width="180" height="60" as="geometry" />
        </mxCell>
        <mxCell id="p3Ti9UDl7Y15IX-M76qU-7" value="END" style="ellipse;whiteSpace=wrap;html=1;fillColor=#e1d5e7;strokeColor=#9673a6;" vertex="1" parent="1">
          <mxGeometry x="80" y="700" width="160" height="50" as="geometry" />
        </mxCell>
        <mxCell id="p3Ti9UDl7Y15IX-M76qU-33" style="edgeStyle=orthogonalEdgeStyle;rounded=0;orthogonalLoop=1;jettySize=auto;html=1;entryX=1;entryY=0.5;entryDx=0;entryDy=0;" edge="1" parent="1" target="p3Ti9UDl7Y15IX-M76qU-4">
          <mxGeometry relative="1" as="geometry">
            <mxPoint x="460" y="300" as="sourcePoint" />
          </mxGeometry>
        </mxCell>
        <mxCell id="p3Ti9UDl7Y15IX-M76qU-9" value="GIVE YOUR PHOTOGRAPH" style="rounded=0;whiteSpace=wrap;html=1;fillColor=#d5e8d4;strokeColor=#82b366;" vertex="1" parent="1">
          <mxGeometry x="470" y="270" width="176" height="45" as="geometry" />
        </mxCell>
        <mxCell id="p3Ti9UDl7Y15IX-M76qU-11" value="STORE THE FACE DATA IN FOLDER ON YOUR NAME" style="rounded=0;whiteSpace=wrap;html=1;fillColor=#d5e8d4;strokeColor=#82b366;" vertex="1" parent="1">
          <mxGeometry x="470" y="340" width="170" height="50" as="geometry" />
        </mxCell>
        <mxCell id="p3Ti9UDl7Y15IX-M76qU-19" value="NO" style="text;html=1;align=center;verticalAlign=middle;resizable=0;points=[];autosize=1;strokeColor=none;fillColor=none;" vertex="1" parent="1">
          <mxGeometry x="100" y="220" width="40" height="30" as="geometry" />
        </mxCell>
        <mxCell id="p3Ti9UDl7Y15IX-M76qU-20" value="YES" style="text;html=1;align=center;verticalAlign=middle;resizable=0;points=[];autosize=1;strokeColor=none;fillColor=none;" vertex="1" parent="1">
          <mxGeometry x="90" y="500" width="50" height="30" as="geometry" />
        </mxCell>
        <mxCell id="p3Ti9UDl7Y15IX-M76qU-29" value="" style="endArrow=none;html=1;rounded=0;exitX=1;exitY=0.5;exitDx=0;exitDy=0;" edge="1" parent="1" source="p3Ti9UDl7Y15IX-M76qU-5">
          <mxGeometry width="50" height="50" relative="1" as="geometry">
            <mxPoint x="340" y="585" as="sourcePoint" />
            <mxPoint x="700" y="435" as="targetPoint" />
            <Array as="points">
              <mxPoint x="360" y="435" />
            </Array>
          </mxGeometry>
        </mxCell>
        <mxCell id="p3Ti9UDl7Y15IX-M76qU-30" value="" style="endArrow=none;html=1;rounded=0;" edge="1" parent="1">
          <mxGeometry width="50" height="50" relative="1" as="geometry">
            <mxPoint x="700" y="430" as="sourcePoint" />
            <mxPoint x="700" y="230" as="targetPoint" />
          </mxGeometry>
        </mxCell>
        <mxCell id="p3Ti9UDl7Y15IX-M76qU-31" value="" style="endArrow=classic;html=1;rounded=0;" edge="1" parent="1">
          <mxGeometry width="50" height="50" relative="1" as="geometry">
            <mxPoint x="700" y="230" as="sourcePoint" />
            <mxPoint x="560" y="270" as="targetPoint" />
            <Array as="points">
              <mxPoint x="560" y="230" />
            </Array>
          </mxGeometry>
        </mxCell>
      </root>
    </mxGraphModel>
  </diagram>
</mxfile>
